<mxfile host="app.diagrams.net" agent="Mozilla/5.0 (Windows NT 10.0; Win64; x64; rv:130.0) Gecko/20100101 Firefox/130.0" version="24.7.16">
  <diagram name="Page-1" id="BztSv5vYyaznn4J2uIU8">
    <mxGraphModel dx="6563" dy="2984" grid="1" gridSize="10" guides="1" tooltips="1" connect="1" arrows="1" fold="1" page="1" pageScale="1" pageWidth="827" pageHeight="1169" math="0" shadow="0">
      <root>
        <mxCell id="0" />
        <mxCell id="1" parent="0" />
        <mxCell id="1fb4G6a68lEe6w4ixnyM-1" value="&lt;div&gt;&lt;font style=&quot;font-size: 15px;&quot;&gt;&lt;br&gt;&lt;/font&gt;&lt;/div&gt;&lt;div&gt;&lt;font style=&quot;font-size: 15px;&quot;&gt;Insect&lt;/font&gt;&lt;/div&gt;" style="swimlane;fontStyle=1;align=center;verticalAlign=top;childLayout=stackLayout;horizontal=1;startSize=80;horizontalStack=0;resizeParent=1;resizeParentMax=0;resizeLast=0;collapsible=1;marginBottom=0;whiteSpace=wrap;html=1;fillColor=#d5e8d4;strokeColor=#82b366;" parent="1" vertex="1">
          <mxGeometry x="1090" y="540" width="240" height="582" as="geometry" />
        </mxCell>
        <mxCell id="1fb4G6a68lEe6w4ixnyM-2" value="+ id : INT" style="text;strokeColor=none;fillColor=none;align=left;verticalAlign=top;spacingLeft=4;spacingRight=4;overflow=hidden;rotatable=0;points=[[0,0.5],[1,0.5]];portConstraint=eastwest;whiteSpace=wrap;html=1;" parent="1fb4G6a68lEe6w4ixnyM-1" vertex="1">
          <mxGeometry y="80" width="240" height="26" as="geometry" />
        </mxCell>
        <mxCell id="1fb4G6a68lEe6w4ixnyM-3" value="+ nameInsect : STRING" style="text;strokeColor=none;fillColor=none;align=left;verticalAlign=top;spacingLeft=4;spacingRight=4;overflow=hidden;rotatable=0;points=[[0,0.5],[1,0.5]];portConstraint=eastwest;whiteSpace=wrap;html=1;" parent="1fb4G6a68lEe6w4ixnyM-1" vertex="1">
          <mxGeometry y="106" width="240" height="26" as="geometry" />
        </mxCell>
        <mxCell id="1fb4G6a68lEe6w4ixnyM-4" value="+ species: STRING" style="text;strokeColor=none;fillColor=none;align=left;verticalAlign=top;spacingLeft=4;spacingRight=4;overflow=hidden;rotatable=0;points=[[0,0.5],[1,0.5]];portConstraint=eastwest;whiteSpace=wrap;html=1;" parent="1fb4G6a68lEe6w4ixnyM-1" vertex="1">
          <mxGeometry y="132" width="240" height="26" as="geometry" />
        </mxCell>
        <mxCell id="1fb4G6a68lEe6w4ixnyM-57" value="+ description : STRING" style="text;strokeColor=none;fillColor=none;align=left;verticalAlign=top;spacingLeft=4;spacingRight=4;overflow=hidden;rotatable=0;points=[[0,0.5],[1,0.5]];portConstraint=eastwest;whiteSpace=wrap;html=1;" parent="1fb4G6a68lEe6w4ixnyM-1" vertex="1">
          <mxGeometry y="158" width="240" height="26" as="geometry" />
        </mxCell>
        <mxCell id="1fb4G6a68lEe6w4ixnyM-35" value="+ activitiesPeriod : STRING" style="text;strokeColor=none;fillColor=none;align=left;verticalAlign=top;spacingLeft=4;spacingRight=4;overflow=hidden;rotatable=0;points=[[0,0.5],[1,0.5]];portConstraint=eastwest;whiteSpace=wrap;html=1;" parent="1fb4G6a68lEe6w4ixnyM-1" vertex="1">
          <mxGeometry y="184" width="240" height="26" as="geometry" />
        </mxCell>
        <mxCell id="1fb4G6a68lEe6w4ixnyM-62" value="+ conservationState : STRING" style="text;strokeColor=none;fillColor=none;align=left;verticalAlign=top;spacingLeft=4;spacingRight=4;overflow=hidden;rotatable=0;points=[[0,0.5],[1,0.5]];portConstraint=eastwest;whiteSpace=wrap;html=1;" parent="1fb4G6a68lEe6w4ixnyM-1" vertex="1">
          <mxGeometry y="210" width="240" height="26" as="geometry" />
        </mxCell>
        <mxCell id="1fb4G6a68lEe6w4ixnyM-63" value="+ implantationType : STRING" style="text;strokeColor=none;fillColor=none;align=left;verticalAlign=top;spacingLeft=4;spacingRight=4;overflow=hidden;rotatable=0;points=[[0,0.5],[1,0.5]];portConstraint=eastwest;whiteSpace=wrap;html=1;" parent="1fb4G6a68lEe6w4ixnyM-1" vertex="1">
          <mxGeometry y="236" width="240" height="26" as="geometry" />
        </mxCell>
        <mxCell id="1fb4G6a68lEe6w4ixnyM-5" value="+ kingdom : STRING" style="text;align=left;verticalAlign=top;spacingLeft=4;spacingRight=4;overflow=hidden;rotatable=0;points=[[0,0.5],[1,0.5]];portConstraint=eastwest;whiteSpace=wrap;html=1;" parent="1fb4G6a68lEe6w4ixnyM-1" vertex="1">
          <mxGeometry y="262" width="240" height="26" as="geometry" />
        </mxCell>
        <mxCell id="1fb4G6a68lEe6w4ixnyM-6" value="+ phylum : STRING" style="text;align=left;verticalAlign=top;spacingLeft=4;spacingRight=4;overflow=hidden;rotatable=0;points=[[0,0.5],[1,0.5]];portConstraint=eastwest;whiteSpace=wrap;html=1;" parent="1fb4G6a68lEe6w4ixnyM-1" vertex="1">
          <mxGeometry y="288" width="240" height="26" as="geometry" />
        </mxCell>
        <mxCell id="1fb4G6a68lEe6w4ixnyM-58" value="+ subPhylum : STRING" style="text;align=left;verticalAlign=top;spacingLeft=4;spacingRight=4;overflow=hidden;rotatable=0;points=[[0,0.5],[1,0.5]];portConstraint=eastwest;whiteSpace=wrap;html=1;" parent="1fb4G6a68lEe6w4ixnyM-1" vertex="1">
          <mxGeometry y="314" width="240" height="26" as="geometry" />
        </mxCell>
        <mxCell id="1fb4G6a68lEe6w4ixnyM-7" value="+&amp;nbsp;class : STRING" style="text;align=left;verticalAlign=top;spacingLeft=4;spacingRight=4;overflow=hidden;rotatable=0;points=[[0,0.5],[1,0.5]];portConstraint=eastwest;whiteSpace=wrap;html=1;" parent="1fb4G6a68lEe6w4ixnyM-1" vertex="1">
          <mxGeometry y="340" width="240" height="26" as="geometry" />
        </mxCell>
        <mxCell id="1fb4G6a68lEe6w4ixnyM-8" value="+&amp;nbsp;order : STRING" style="text;align=left;verticalAlign=top;spacingLeft=4;spacingRight=4;overflow=hidden;rotatable=0;points=[[0,0.5],[1,0.5]];portConstraint=eastwest;whiteSpace=wrap;html=1;" parent="1fb4G6a68lEe6w4ixnyM-1" vertex="1">
          <mxGeometry y="366" width="240" height="26" as="geometry" />
        </mxCell>
        <mxCell id="1fb4G6a68lEe6w4ixnyM-11" value="+&amp;nbsp;family : STRING" style="text;align=left;verticalAlign=top;spacingLeft=4;spacingRight=4;overflow=hidden;rotatable=0;points=[[0,0.5],[1,0.5]];portConstraint=eastwest;whiteSpace=wrap;html=1;" parent="1fb4G6a68lEe6w4ixnyM-1" vertex="1">
          <mxGeometry y="392" width="240" height="26" as="geometry" />
        </mxCell>
        <mxCell id="1fb4G6a68lEe6w4ixnyM-59" value="+ subFamily : STRING" style="text;align=left;verticalAlign=top;spacingLeft=4;spacingRight=4;overflow=hidden;rotatable=0;points=[[0,0.5],[1,0.5]];portConstraint=eastwest;whiteSpace=wrap;html=1;" parent="1fb4G6a68lEe6w4ixnyM-1" vertex="1">
          <mxGeometry y="418" width="240" height="26" as="geometry" />
        </mxCell>
        <mxCell id="1fb4G6a68lEe6w4ixnyM-60" value="+ tribe : STRING" style="text;align=left;verticalAlign=top;spacingLeft=4;spacingRight=4;overflow=hidden;rotatable=0;points=[[0,0.5],[1,0.5]];portConstraint=eastwest;whiteSpace=wrap;html=1;" parent="1fb4G6a68lEe6w4ixnyM-1" vertex="1">
          <mxGeometry y="444" width="240" height="26" as="geometry" />
        </mxCell>
        <mxCell id="1fb4G6a68lEe6w4ixnyM-61" value="+ subTribe: STRING" style="text;align=left;verticalAlign=top;spacingLeft=4;spacingRight=4;overflow=hidden;rotatable=0;points=[[0,0.5],[1,0.5]];portConstraint=eastwest;whiteSpace=wrap;html=1;" parent="1fb4G6a68lEe6w4ixnyM-1" vertex="1">
          <mxGeometry y="470" width="240" height="26" as="geometry" />
        </mxCell>
        <mxCell id="1fb4G6a68lEe6w4ixnyM-10" value="+ genus : STRING" style="text;align=left;verticalAlign=top;spacingLeft=4;spacingRight=4;overflow=hidden;rotatable=0;points=[[0,0.5],[1,0.5]];portConstraint=eastwest;whiteSpace=wrap;html=1;" parent="1fb4G6a68lEe6w4ixnyM-1" vertex="1">
          <mxGeometry y="496" width="240" height="26" as="geometry" />
        </mxCell>
        <mxCell id="1fb4G6a68lEe6w4ixnyM-12" value="" style="line;strokeWidth=1;fillColor=none;align=left;verticalAlign=middle;spacingTop=-1;spacingLeft=3;spacingRight=3;rotatable=0;labelPosition=right;points=[];portConstraint=eastwest;strokeColor=inherit;" parent="1fb4G6a68lEe6w4ixnyM-1" vertex="1">
          <mxGeometry y="522" width="240" height="8" as="geometry" />
        </mxCell>
        <mxCell id="1fb4G6a68lEe6w4ixnyM-13" value="+ get() : type" style="text;strokeColor=none;fillColor=none;align=left;verticalAlign=top;spacingLeft=4;spacingRight=4;overflow=hidden;rotatable=0;points=[[0,0.5],[1,0.5]];portConstraint=eastwest;whiteSpace=wrap;html=1;" parent="1fb4G6a68lEe6w4ixnyM-1" vertex="1">
          <mxGeometry y="530" width="240" height="26" as="geometry" />
        </mxCell>
        <mxCell id="XJs-50ZHC66t2jsVd8uo-133" value="+ set() : type" style="text;strokeColor=none;fillColor=none;align=left;verticalAlign=top;spacingLeft=4;spacingRight=4;overflow=hidden;rotatable=0;points=[[0,0.5],[1,0.5]];portConstraint=eastwest;whiteSpace=wrap;html=1;" parent="1fb4G6a68lEe6w4ixnyM-1" vertex="1">
          <mxGeometry y="556" width="240" height="26" as="geometry" />
        </mxCell>
        <mxCell id="1fb4G6a68lEe6w4ixnyM-14" value="&lt;div style=&quot;font-size: 15px;&quot;&gt;&lt;font style=&quot;font-size: 15px;&quot;&gt;&lt;br&gt;&lt;/font&gt;&lt;/div&gt;&lt;div style=&quot;font-size: 15px;&quot;&gt;&lt;font style=&quot;font-size: 15px;&quot;&gt;&lt;font style=&quot;font-size: 15px;&quot;&gt;User&lt;/font&gt;&lt;br&gt;&lt;/font&gt;&lt;/div&gt;" style="swimlane;fontStyle=1;align=center;verticalAlign=top;childLayout=stackLayout;horizontal=1;startSize=80;horizontalStack=0;resizeParent=1;resizeParentMax=0;resizeLast=0;collapsible=1;marginBottom=0;whiteSpace=wrap;html=1;fillColor=#d5e8d4;strokeColor=#82b366;" parent="1" vertex="1">
          <mxGeometry x="2088" y="780" width="240" height="270" as="geometry" />
        </mxCell>
        <mxCell id="1fb4G6a68lEe6w4ixnyM-15" value="+ id : INT" style="text;strokeColor=none;fillColor=none;align=left;verticalAlign=top;spacingLeft=4;spacingRight=4;overflow=hidden;rotatable=0;points=[[0,0.5],[1,0.5]];portConstraint=eastwest;whiteSpace=wrap;html=1;" parent="1fb4G6a68lEe6w4ixnyM-14" vertex="1">
          <mxGeometry y="80" width="240" height="26" as="geometry" />
        </mxCell>
        <mxCell id="1fb4G6a68lEe6w4ixnyM-16" value="+ mail : STRING" style="text;strokeColor=none;fillColor=none;align=left;verticalAlign=top;spacingLeft=4;spacingRight=4;overflow=hidden;rotatable=0;points=[[0,0.5],[1,0.5]];portConstraint=eastwest;whiteSpace=wrap;html=1;" parent="1fb4G6a68lEe6w4ixnyM-14" vertex="1">
          <mxGeometry y="106" width="240" height="26" as="geometry" />
        </mxCell>
        <mxCell id="1fb4G6a68lEe6w4ixnyM-17" value="+ pseudo : STRING" style="text;strokeColor=none;fillColor=none;align=left;verticalAlign=top;spacingLeft=4;spacingRight=4;overflow=hidden;rotatable=0;points=[[0,0.5],[1,0.5]];portConstraint=eastwest;whiteSpace=wrap;html=1;" parent="1fb4G6a68lEe6w4ixnyM-14" vertex="1">
          <mxGeometry y="132" width="240" height="26" as="geometry" />
        </mxCell>
        <mxCell id="1fb4G6a68lEe6w4ixnyM-18" value="+ password : STRING" style="text;strokeColor=none;fillColor=none;align=left;verticalAlign=top;spacingLeft=4;spacingRight=4;overflow=hidden;rotatable=0;points=[[0,0.5],[1,0.5]];portConstraint=eastwest;whiteSpace=wrap;html=1;" parent="1fb4G6a68lEe6w4ixnyM-14" vertex="1">
          <mxGeometry y="158" width="240" height="26" as="geometry" />
        </mxCell>
        <mxCell id="1fb4G6a68lEe6w4ixnyM-19" value="+ profileImage : STRING" style="text;strokeColor=none;fillColor=none;align=left;verticalAlign=top;spacingLeft=4;spacingRight=4;overflow=hidden;rotatable=0;points=[[0,0.5],[1,0.5]];portConstraint=eastwest;whiteSpace=wrap;html=1;" parent="1fb4G6a68lEe6w4ixnyM-14" vertex="1">
          <mxGeometry y="184" width="240" height="26" as="geometry" />
        </mxCell>
        <mxCell id="1fb4G6a68lEe6w4ixnyM-20" value="" style="line;strokeWidth=1;fillColor=none;align=left;verticalAlign=middle;spacingTop=-1;spacingLeft=3;spacingRight=3;rotatable=0;labelPosition=right;points=[];portConstraint=eastwest;strokeColor=inherit;" parent="1fb4G6a68lEe6w4ixnyM-14" vertex="1">
          <mxGeometry y="210" width="240" height="8" as="geometry" />
        </mxCell>
        <mxCell id="XJs-50ZHC66t2jsVd8uo-139" value="+ get() : type" style="text;strokeColor=none;fillColor=none;align=left;verticalAlign=top;spacingLeft=4;spacingRight=4;overflow=hidden;rotatable=0;points=[[0,0.5],[1,0.5]];portConstraint=eastwest;whiteSpace=wrap;html=1;" parent="1fb4G6a68lEe6w4ixnyM-14" vertex="1">
          <mxGeometry y="218" width="240" height="26" as="geometry" />
        </mxCell>
        <mxCell id="XJs-50ZHC66t2jsVd8uo-140" value="+ set() : type" style="text;strokeColor=none;fillColor=none;align=left;verticalAlign=top;spacingLeft=4;spacingRight=4;overflow=hidden;rotatable=0;points=[[0,0.5],[1,0.5]];portConstraint=eastwest;whiteSpace=wrap;html=1;" parent="1fb4G6a68lEe6w4ixnyM-14" vertex="1">
          <mxGeometry y="244" width="240" height="26" as="geometry" />
        </mxCell>
        <mxCell id="1fb4G6a68lEe6w4ixnyM-85" value="&lt;div style=&quot;font-size: 15px;&quot;&gt;&lt;br&gt;&lt;/div&gt;&lt;div style=&quot;font-size: 15px;&quot;&gt;Observation&lt;br&gt;&lt;/div&gt;" style="swimlane;fontStyle=1;align=center;verticalAlign=top;childLayout=stackLayout;horizontal=1;startSize=80;horizontalStack=0;resizeParent=1;resizeParentMax=0;resizeLast=0;collapsible=1;marginBottom=0;whiteSpace=wrap;html=1;rounded=1;shadow=0;glass=0;fillColor=#f5f5f5;fontColor=#333333;strokeColor=default;gradientColor=#E6FFCC;gradientDirection=radial;swimlaneFillColor=none;" parent="1" vertex="1">
          <mxGeometry x="1560" y="540" width="248.79" height="608" as="geometry" />
        </mxCell>
        <mxCell id="1fb4G6a68lEe6w4ixnyM-30" value="+ id : INT" style="text;strokeColor=none;fillColor=none;align=left;verticalAlign=top;spacingLeft=4;spacingRight=4;overflow=hidden;rotatable=0;points=[[0,0.5],[1,0.5]];portConstraint=eastwest;whiteSpace=wrap;html=1;" parent="1fb4G6a68lEe6w4ixnyM-85" vertex="1">
          <mxGeometry y="80" width="248.79" height="26" as="geometry" />
        </mxCell>
        <mxCell id="1fb4G6a68lEe6w4ixnyM-34" value="+ sizeInsect : FLOAT" style="text;strokeColor=none;fillColor=none;align=left;verticalAlign=top;spacingLeft=4;spacingRight=4;overflow=hidden;rotatable=0;points=[[0,0.5],[1,0.5]];portConstraint=eastwest;whiteSpace=wrap;html=1;" parent="1fb4G6a68lEe6w4ixnyM-85" vertex="1">
          <mxGeometry y="106" width="248.79" height="26" as="geometry" />
        </mxCell>
        <mxCell id="1fb4G6a68lEe6w4ixnyM-33" value="+ primaryColorInsect : STRING" style="text;strokeColor=none;fillColor=none;align=left;verticalAlign=top;spacingLeft=4;spacingRight=4;overflow=hidden;rotatable=0;points=[[0,0.5],[1,0.5]];portConstraint=eastwest;whiteSpace=wrap;html=1;" parent="1fb4G6a68lEe6w4ixnyM-85" vertex="1">
          <mxGeometry y="132" width="248.79" height="26" as="geometry" />
        </mxCell>
        <mxCell id="1fb4G6a68lEe6w4ixnyM-36" value="+ developmentStageInsect : STRING" style="text;strokeColor=none;fillColor=none;align=left;verticalAlign=top;spacingLeft=4;spacingRight=4;overflow=hidden;rotatable=0;points=[[0,0.5],[1,0.5]];portConstraint=eastwest;whiteSpace=wrap;html=1;" parent="1fb4G6a68lEe6w4ixnyM-85" vertex="1">
          <mxGeometry y="158" width="248.79" height="26" as="geometry" />
        </mxCell>
        <mxCell id="1fb4G6a68lEe6w4ixnyM-37" value="+ photoInsect : STRING" style="text;align=left;verticalAlign=top;spacingLeft=4;spacingRight=4;overflow=hidden;rotatable=0;points=[[0,0.5],[1,0.5]];portConstraint=eastwest;whiteSpace=wrap;html=1;" parent="1fb4G6a68lEe6w4ixnyM-85" vertex="1">
          <mxGeometry y="184" width="248.79" height="26" as="geometry" />
        </mxCell>
        <mxCell id="1fb4G6a68lEe6w4ixnyM-39" value="+&amp;nbsp;organismHost : STRING" style="text;strokeColor=none;fillColor=none;align=left;verticalAlign=top;spacingLeft=4;spacingRight=4;overflow=hidden;rotatable=0;points=[[0,0.5],[1,0.5]];portConstraint=eastwest;whiteSpace=wrap;html=1;" parent="1fb4G6a68lEe6w4ixnyM-85" vertex="1">
          <mxGeometry y="210" width="248.79" height="26" as="geometry" />
        </mxCell>
        <mxCell id="1fb4G6a68lEe6w4ixnyM-47" value="+ weather : STRING" style="text;strokeColor=none;fillColor=none;align=left;verticalAlign=top;spacingLeft=4;spacingRight=4;overflow=hidden;rotatable=0;points=[[0,0.5],[1,0.5]];portConstraint=eastwest;whiteSpace=wrap;html=1;" parent="1fb4G6a68lEe6w4ixnyM-85" vertex="1">
          <mxGeometry y="236" width="248.79" height="26" as="geometry" />
        </mxCell>
        <mxCell id="1fb4G6a68lEe6w4ixnyM-46" value="+&amp;nbsp;temperature : FLOAT" style="text;strokeColor=none;fillColor=none;align=left;verticalAlign=top;spacingLeft=4;spacingRight=4;overflow=hidden;rotatable=0;points=[[0,0.5],[1,0.5]];portConstraint=eastwest;whiteSpace=wrap;html=1;" parent="1fb4G6a68lEe6w4ixnyM-85" vertex="1">
          <mxGeometry y="262" width="248.79" height="26" as="geometry" />
        </mxCell>
        <mxCell id="1fb4G6a68lEe6w4ixnyM-45" value="+ rateHumidity : FLOAT" style="text;strokeColor=none;fillColor=none;align=left;verticalAlign=top;spacingLeft=4;spacingRight=4;overflow=hidden;rotatable=0;points=[[0,0.5],[1,0.5]];portConstraint=eastwest;whiteSpace=wrap;html=1;" parent="1fb4G6a68lEe6w4ixnyM-85" vertex="1">
          <mxGeometry y="288" width="248.79" height="26" as="geometry" />
        </mxCell>
        <mxCell id="1fb4G6a68lEe6w4ixnyM-44" value="+&amp;nbsp;longitude : FLOAT" style="text;strokeColor=none;fillColor=none;align=left;verticalAlign=top;spacingLeft=4;spacingRight=4;overflow=hidden;rotatable=0;points=[[0,0.5],[1,0.5]];portConstraint=eastwest;whiteSpace=wrap;html=1;" parent="1fb4G6a68lEe6w4ixnyM-85" vertex="1">
          <mxGeometry y="314" width="248.79" height="26" as="geometry" />
        </mxCell>
        <mxCell id="1fb4G6a68lEe6w4ixnyM-43" value="+&amp;nbsp;latitude: FLOAT" style="text;strokeColor=none;fillColor=none;align=left;verticalAlign=top;spacingLeft=4;spacingRight=4;overflow=hidden;rotatable=0;points=[[0,0.5],[1,0.5]];portConstraint=eastwest;whiteSpace=wrap;html=1;" parent="1fb4G6a68lEe6w4ixnyM-85" vertex="1">
          <mxGeometry y="340" width="248.79" height="26" as="geometry" />
        </mxCell>
        <mxCell id="1fb4G6a68lEe6w4ixnyM-42" value="+&amp;nbsp;zoneObservation : STRING" style="text;strokeColor=none;fillColor=none;align=left;verticalAlign=top;spacingLeft=4;spacingRight=4;overflow=hidden;rotatable=0;points=[[0,0.5],[1,0.5]];portConstraint=eastwest;whiteSpace=wrap;html=1;" parent="1fb4G6a68lEe6w4ixnyM-85" vertex="1">
          <mxGeometry y="366" width="248.79" height="26" as="geometry" />
        </mxCell>
        <mxCell id="1fb4G6a68lEe6w4ixnyM-51" value="+&amp;nbsp;dateEdit : DATE" style="text;strokeColor=none;fillColor=none;align=left;verticalAlign=top;spacingLeft=4;spacingRight=4;overflow=hidden;rotatable=0;points=[[0,0.5],[1,0.5]];portConstraint=eastwest;whiteSpace=wrap;html=1;" parent="1fb4G6a68lEe6w4ixnyM-85" vertex="1">
          <mxGeometry y="392" width="248.79" height="26" as="geometry" />
        </mxCell>
        <mxCell id="1fb4G6a68lEe6w4ixnyM-50" value="+&amp;nbsp;dateCreate : DATE" style="text;strokeColor=none;fillColor=none;align=left;verticalAlign=top;spacingLeft=4;spacingRight=4;overflow=hidden;rotatable=0;points=[[0,0.5],[1,0.5]];portConstraint=eastwest;whiteSpace=wrap;html=1;" parent="1fb4G6a68lEe6w4ixnyM-85" vertex="1">
          <mxGeometry y="418" width="248.79" height="26" as="geometry" />
        </mxCell>
        <mxCell id="1fb4G6a68lEe6w4ixnyM-49" value="+&amp;nbsp;dateObserve : DATE" style="text;strokeColor=none;fillColor=none;align=left;verticalAlign=top;spacingLeft=4;spacingRight=4;overflow=hidden;rotatable=0;points=[[0,0.5],[1,0.5]];portConstraint=eastwest;whiteSpace=wrap;html=1;" parent="1fb4G6a68lEe6w4ixnyM-85" vertex="1">
          <mxGeometry y="444" width="248.79" height="26" as="geometry" />
        </mxCell>
        <mxCell id="1fb4G6a68lEe6w4ixnyM-54" value="+ idUser : INT" style="text;strokeColor=none;fillColor=none;align=left;verticalAlign=top;spacingLeft=4;spacingRight=4;overflow=hidden;rotatable=0;points=[[0,0.5],[1,0.5]];portConstraint=eastwest;whiteSpace=wrap;html=1;" parent="1fb4G6a68lEe6w4ixnyM-85" vertex="1">
          <mxGeometry y="470" width="248.79" height="26" as="geometry" />
        </mxCell>
        <mxCell id="1fb4G6a68lEe6w4ixnyM-53" value="+ idInsect : INT" style="text;strokeColor=none;fillColor=none;align=left;verticalAlign=top;spacingLeft=4;spacingRight=4;overflow=hidden;rotatable=0;points=[[0,0.5],[1,0.5]];portConstraint=eastwest;whiteSpace=wrap;html=1;" parent="1fb4G6a68lEe6w4ixnyM-85" vertex="1">
          <mxGeometry y="496" width="248.79" height="26" as="geometry" />
        </mxCell>
        <mxCell id="1fb4G6a68lEe6w4ixnyM-40" value="+ idInsectProximityObservation : INT" style="text;align=left;verticalAlign=top;spacingLeft=4;spacingRight=4;overflow=hidden;rotatable=0;points=[[0,0.5],[1,0.5]];portConstraint=eastwest;whiteSpace=wrap;html=1;" parent="1fb4G6a68lEe6w4ixnyM-85" vertex="1">
          <mxGeometry y="522" width="248.79" height="26" as="geometry" />
        </mxCell>
        <mxCell id="1fb4G6a68lEe6w4ixnyM-87" value="" style="line;strokeWidth=1;fillColor=none;align=left;verticalAlign=middle;spacingTop=-1;spacingLeft=3;spacingRight=3;rotatable=0;labelPosition=right;points=[];portConstraint=eastwest;strokeColor=inherit;" parent="1fb4G6a68lEe6w4ixnyM-85" vertex="1">
          <mxGeometry y="548" width="248.79" height="8" as="geometry" />
        </mxCell>
        <mxCell id="XJs-50ZHC66t2jsVd8uo-134" value="+ get() : type" style="text;strokeColor=none;fillColor=none;align=left;verticalAlign=top;spacingLeft=4;spacingRight=4;overflow=hidden;rotatable=0;points=[[0,0.5],[1,0.5]];portConstraint=eastwest;whiteSpace=wrap;html=1;" parent="1fb4G6a68lEe6w4ixnyM-85" vertex="1">
          <mxGeometry y="556" width="248.79" height="26" as="geometry" />
        </mxCell>
        <mxCell id="XJs-50ZHC66t2jsVd8uo-135" value="+ set() : type" style="text;strokeColor=none;fillColor=none;align=left;verticalAlign=top;spacingLeft=4;spacingRight=4;overflow=hidden;rotatable=0;points=[[0,0.5],[1,0.5]];portConstraint=eastwest;whiteSpace=wrap;html=1;" parent="1fb4G6a68lEe6w4ixnyM-85" vertex="1">
          <mxGeometry y="582" width="248.79" height="26" as="geometry" />
        </mxCell>
        <mxCell id="XJs-50ZHC66t2jsVd8uo-6" style="edgeStyle=orthogonalEdgeStyle;rounded=0;orthogonalLoop=1;jettySize=auto;html=1;exitX=1;exitY=0.3333333333333333;exitDx=0;exitDy=0;exitPerimeter=0;entryX=0;entryY=0.5;entryDx=0;entryDy=0;" parent="1" source="XJs-50ZHC66t2jsVd8uo-1" target="XJs-50ZHC66t2jsVd8uo-2" edge="1">
          <mxGeometry relative="1" as="geometry" />
        </mxCell>
        <mxCell id="XJs-50ZHC66t2jsVd8uo-17" style="edgeStyle=orthogonalEdgeStyle;rounded=0;orthogonalLoop=1;jettySize=auto;html=1;exitX=0.5;exitY=0;exitDx=0;exitDy=0;exitPerimeter=0;" parent="1" source="XJs-50ZHC66t2jsVd8uo-1" edge="1">
          <mxGeometry relative="1" as="geometry">
            <mxPoint x="134.33333333333348" y="530" as="targetPoint" />
          </mxGeometry>
        </mxCell>
        <mxCell id="XJs-50ZHC66t2jsVd8uo-24" style="edgeStyle=orthogonalEdgeStyle;rounded=0;orthogonalLoop=1;jettySize=auto;html=1;exitX=1;exitY=0.3333333333333333;exitDx=0;exitDy=0;exitPerimeter=0;entryX=0;entryY=0.5;entryDx=0;entryDy=0;" parent="1" source="XJs-50ZHC66t2jsVd8uo-1" target="XJs-50ZHC66t2jsVd8uo-16" edge="1">
          <mxGeometry relative="1" as="geometry" />
        </mxCell>
        <mxCell id="XJs-50ZHC66t2jsVd8uo-43" style="edgeStyle=orthogonalEdgeStyle;rounded=0;orthogonalLoop=1;jettySize=auto;html=1;exitX=1;exitY=0.3333333333333333;exitDx=0;exitDy=0;exitPerimeter=0;entryX=0;entryY=0.5;entryDx=0;entryDy=0;" parent="1" source="XJs-50ZHC66t2jsVd8uo-1" target="XJs-50ZHC66t2jsVd8uo-38" edge="1">
          <mxGeometry relative="1" as="geometry" />
        </mxCell>
        <mxCell id="XJs-50ZHC66t2jsVd8uo-58" style="edgeStyle=orthogonalEdgeStyle;rounded=0;orthogonalLoop=1;jettySize=auto;html=1;exitX=1;exitY=0.3333333333333333;exitDx=0;exitDy=0;exitPerimeter=0;entryX=0;entryY=0.5;entryDx=0;entryDy=0;" parent="1" source="XJs-50ZHC66t2jsVd8uo-1" target="XJs-50ZHC66t2jsVd8uo-50" edge="1">
          <mxGeometry relative="1" as="geometry" />
        </mxCell>
        <mxCell id="XJs-50ZHC66t2jsVd8uo-59" style="edgeStyle=orthogonalEdgeStyle;rounded=0;orthogonalLoop=1;jettySize=auto;html=1;exitX=1;exitY=0.3333333333333333;exitDx=0;exitDy=0;exitPerimeter=0;entryX=0;entryY=0.5;entryDx=0;entryDy=0;" parent="1" source="XJs-50ZHC66t2jsVd8uo-1" target="XJs-50ZHC66t2jsVd8uo-51" edge="1">
          <mxGeometry relative="1" as="geometry" />
        </mxCell>
        <mxCell id="XJs-50ZHC66t2jsVd8uo-60" style="edgeStyle=orthogonalEdgeStyle;rounded=0;orthogonalLoop=1;jettySize=auto;html=1;exitX=1;exitY=0.3333333333333333;exitDx=0;exitDy=0;exitPerimeter=0;entryX=0;entryY=0.5;entryDx=0;entryDy=0;" parent="1" source="XJs-50ZHC66t2jsVd8uo-1" target="XJs-50ZHC66t2jsVd8uo-52" edge="1">
          <mxGeometry relative="1" as="geometry" />
        </mxCell>
        <mxCell id="XJs-50ZHC66t2jsVd8uo-1" value="Utilisateur·ice" style="shape=umlActor;verticalLabelPosition=bottom;verticalAlign=top;html=1;fontFamily=Helvetica;fontSize=13;fillColor=#d5e8d4;gradientColor=#97d077;strokeColor=#82b366;" parent="1" vertex="1">
          <mxGeometry x="114" y="620" width="40" height="80" as="geometry" />
        </mxCell>
        <mxCell id="XJs-50ZHC66t2jsVd8uo-2" value="Créer une observation" style="ellipse;whiteSpace=wrap;html=1;fontFamily=Helvetica;fontSize=13;fillColor=#d5e8d4;strokeColor=#82b366;" parent="1" vertex="1">
          <mxGeometry x="280" y="1050" width="180" height="40" as="geometry" />
        </mxCell>
        <mxCell id="XJs-50ZHC66t2jsVd8uo-7" style="edgeStyle=orthogonalEdgeStyle;rounded=0;orthogonalLoop=1;jettySize=auto;html=1;exitX=0;exitY=0.5;exitDx=0;exitDy=0;entryX=1;entryY=0.5;entryDx=0;entryDy=0;dashed=1;" parent="1" source="XJs-50ZHC66t2jsVd8uo-3" target="XJs-50ZHC66t2jsVd8uo-2" edge="1">
          <mxGeometry relative="1" as="geometry" />
        </mxCell>
        <mxCell id="XJs-50ZHC66t2jsVd8uo-3" value="Modifier ses observations" style="ellipse;whiteSpace=wrap;html=1;fontFamily=Helvetica;fontSize=13;fillColor=#d5e8d4;strokeColor=#82b366;" parent="1" vertex="1">
          <mxGeometry x="558.79" y="1020" width="180" height="40" as="geometry" />
        </mxCell>
        <mxCell id="XJs-50ZHC66t2jsVd8uo-8" style="edgeStyle=orthogonalEdgeStyle;rounded=0;orthogonalLoop=1;jettySize=auto;html=1;exitX=0;exitY=0.5;exitDx=0;exitDy=0;dashed=1;" parent="1" source="XJs-50ZHC66t2jsVd8uo-5" target="XJs-50ZHC66t2jsVd8uo-2" edge="1">
          <mxGeometry relative="1" as="geometry" />
        </mxCell>
        <mxCell id="XJs-50ZHC66t2jsVd8uo-5" value="&lt;font style=&quot;font-size: 13px;&quot;&gt;Supprimer ses observations&lt;/font&gt;" style="ellipse;whiteSpace=wrap;html=1;fontFamily=Helvetica;fontSize=13;fillColor=#d5e8d4;strokeColor=#82b366;" parent="1" vertex="1">
          <mxGeometry x="558.79" y="1080" width="180" height="40" as="geometry" />
        </mxCell>
        <mxCell id="XJs-50ZHC66t2jsVd8uo-9" value="E" style="text;html=1;align=center;verticalAlign=middle;whiteSpace=wrap;rounded=0;fillColor=none;fontStyle=1;" parent="1" vertex="1">
          <mxGeometry x="498.78999999999996" y="1010" width="60" height="30" as="geometry" />
        </mxCell>
        <mxCell id="XJs-50ZHC66t2jsVd8uo-11" value="E" style="text;html=1;align=center;verticalAlign=middle;whiteSpace=wrap;rounded=0;fillColor=none;fontStyle=1;" parent="1" vertex="1">
          <mxGeometry x="498.78999999999996" y="1100" width="60" height="30" as="geometry" />
        </mxCell>
        <mxCell id="XJs-50ZHC66t2jsVd8uo-18" style="edgeStyle=orthogonalEdgeStyle;rounded=0;orthogonalLoop=1;jettySize=auto;html=1;exitX=1;exitY=0.3333333333333333;exitDx=0;exitDy=0;exitPerimeter=0;entryX=0;entryY=0.5;entryDx=0;entryDy=0;" parent="1" source="XJs-50ZHC66t2jsVd8uo-13" target="XJs-50ZHC66t2jsVd8uo-14" edge="1">
          <mxGeometry relative="1" as="geometry" />
        </mxCell>
        <mxCell id="XJs-50ZHC66t2jsVd8uo-35" style="edgeStyle=orthogonalEdgeStyle;rounded=0;orthogonalLoop=1;jettySize=auto;html=1;exitX=1;exitY=0.3333333333333333;exitDx=0;exitDy=0;exitPerimeter=0;entryX=0;entryY=0.5;entryDx=0;entryDy=0;" parent="1" source="XJs-50ZHC66t2jsVd8uo-13" target="XJs-50ZHC66t2jsVd8uo-30" edge="1">
          <mxGeometry relative="1" as="geometry" />
        </mxCell>
        <mxCell id="XJs-50ZHC66t2jsVd8uo-36" style="edgeStyle=orthogonalEdgeStyle;rounded=0;orthogonalLoop=1;jettySize=auto;html=1;exitX=1;exitY=0.3333333333333333;exitDx=0;exitDy=0;exitPerimeter=0;entryX=0;entryY=0.5;entryDx=0;entryDy=0;" parent="1" source="XJs-50ZHC66t2jsVd8uo-13" target="XJs-50ZHC66t2jsVd8uo-33" edge="1">
          <mxGeometry relative="1" as="geometry" />
        </mxCell>
        <mxCell id="XJs-50ZHC66t2jsVd8uo-37" style="edgeStyle=orthogonalEdgeStyle;rounded=0;orthogonalLoop=1;jettySize=auto;html=1;exitX=1;exitY=0.3333333333333333;exitDx=0;exitDy=0;exitPerimeter=0;entryX=0;entryY=0.5;entryDx=0;entryDy=0;" parent="1" source="XJs-50ZHC66t2jsVd8uo-13" target="XJs-50ZHC66t2jsVd8uo-34" edge="1">
          <mxGeometry relative="1" as="geometry" />
        </mxCell>
        <mxCell id="XJs-50ZHC66t2jsVd8uo-13" value="Visiteur·euse" style="shape=umlActor;verticalLabelPosition=bottom;verticalAlign=top;html=1;fontFamily=Helvetica;fontSize=13;fillColor=#fff2cc;strokeColor=#d6b656;" parent="1" vertex="1">
          <mxGeometry x="114" y="420" width="40" height="80" as="geometry" />
        </mxCell>
        <mxCell id="XJs-50ZHC66t2jsVd8uo-14" value="Créer un compte" style="ellipse;whiteSpace=wrap;html=1;fontFamily=Helvetica;fontSize=13;fillColor=#fff2cc;strokeColor=#d6b656;" parent="1" vertex="1">
          <mxGeometry x="280" y="260" width="180" height="40" as="geometry" />
        </mxCell>
        <mxCell id="XJs-50ZHC66t2jsVd8uo-19" style="edgeStyle=orthogonalEdgeStyle;rounded=0;orthogonalLoop=1;jettySize=auto;html=1;exitX=0;exitY=0.5;exitDx=0;exitDy=0;entryX=1;entryY=0.5;entryDx=0;entryDy=0;dashed=1;" parent="1" source="XJs-50ZHC66t2jsVd8uo-15" target="XJs-50ZHC66t2jsVd8uo-14" edge="1">
          <mxGeometry relative="1" as="geometry" />
        </mxCell>
        <mxCell id="XJs-50ZHC66t2jsVd8uo-15" value="Se connecter" style="ellipse;whiteSpace=wrap;html=1;fontFamily=Helvetica;fontSize=13;fillColor=#fff2cc;strokeColor=#d6b656;" parent="1" vertex="1">
          <mxGeometry x="558.79" y="260" width="180" height="40" as="geometry" />
        </mxCell>
        <mxCell id="XJs-50ZHC66t2jsVd8uo-16" value="Se déconnecter" style="ellipse;whiteSpace=wrap;html=1;fontFamily=Helvetica;fontSize=13;fillColor=#fff2cc;strokeColor=#d6b656;" parent="1" vertex="1">
          <mxGeometry x="280" y="760" width="180" height="40" as="geometry" />
        </mxCell>
        <mxCell id="XJs-50ZHC66t2jsVd8uo-26" value="E" style="text;html=1;align=center;verticalAlign=middle;whiteSpace=wrap;rounded=0;fillColor=none;fontStyle=1;" parent="1" vertex="1">
          <mxGeometry x="480" y="240" width="60" height="30" as="geometry" />
        </mxCell>
        <mxCell id="XJs-50ZHC66t2jsVd8uo-30" value="Consulter les insectes" style="ellipse;whiteSpace=wrap;html=1;fontFamily=Helvetica;fontSize=13;fillColor=#fff2cc;strokeColor=#d6b656;" parent="1" vertex="1">
          <mxGeometry x="280" y="380" width="180" height="40" as="geometry" />
        </mxCell>
        <mxCell id="XJs-50ZHC66t2jsVd8uo-33" value="Consulter les observations" style="ellipse;whiteSpace=wrap;html=1;fontFamily=Helvetica;fontSize=13;fillColor=#fff2cc;strokeColor=#d6b656;" parent="1" vertex="1">
          <mxGeometry x="280" y="440" width="180" height="40" as="geometry" />
        </mxCell>
        <mxCell id="XJs-50ZHC66t2jsVd8uo-34" value="Consulter le profil d&#39;utilisateur·ices" style="ellipse;whiteSpace=wrap;html=1;fontFamily=Helvetica;fontSize=13;fillColor=#fff2cc;strokeColor=#d6b656;" parent="1" vertex="1">
          <mxGeometry x="280" y="320" width="180" height="40" as="geometry" />
        </mxCell>
        <mxCell id="XJs-50ZHC66t2jsVd8uo-38" value="Consulter son profil" style="ellipse;whiteSpace=wrap;html=1;fontFamily=Helvetica;fontSize=13;fillColor=#d5e8d4;strokeColor=#82b366;" parent="1" vertex="1">
          <mxGeometry x="280" y="870" width="180" height="40" as="geometry" />
        </mxCell>
        <mxCell id="XJs-50ZHC66t2jsVd8uo-40" style="edgeStyle=orthogonalEdgeStyle;rounded=0;orthogonalLoop=1;jettySize=auto;html=1;exitX=0;exitY=0.5;exitDx=0;exitDy=0;entryX=1;entryY=0.5;entryDx=0;entryDy=0;dashed=1;" parent="1" source="XJs-50ZHC66t2jsVd8uo-39" target="XJs-50ZHC66t2jsVd8uo-38" edge="1">
          <mxGeometry relative="1" as="geometry" />
        </mxCell>
        <mxCell id="XJs-50ZHC66t2jsVd8uo-39" value="Modifier son profil" style="ellipse;whiteSpace=wrap;html=1;fontFamily=Helvetica;fontSize=13;fillColor=#d5e8d4;strokeColor=#82b366;" parent="1" vertex="1">
          <mxGeometry x="558.79" y="840" width="180" height="40" as="geometry" />
        </mxCell>
        <mxCell id="XJs-50ZHC66t2jsVd8uo-46" style="edgeStyle=orthogonalEdgeStyle;rounded=0;orthogonalLoop=1;jettySize=auto;html=1;exitX=0;exitY=0.5;exitDx=0;exitDy=0;entryX=1;entryY=0.5;entryDx=0;entryDy=0;dashed=1;" parent="1" source="XJs-50ZHC66t2jsVd8uo-45" target="XJs-50ZHC66t2jsVd8uo-38" edge="1">
          <mxGeometry relative="1" as="geometry" />
        </mxCell>
        <mxCell id="XJs-50ZHC66t2jsVd8uo-45" value="Supprimer son profil" style="ellipse;whiteSpace=wrap;html=1;fontFamily=Helvetica;fontSize=13;fillColor=#d5e8d4;strokeColor=#82b366;" parent="1" vertex="1">
          <mxGeometry x="558.79" y="900" width="180" height="40" as="geometry" />
        </mxCell>
        <mxCell id="XJs-50ZHC66t2jsVd8uo-47" value="E" style="text;html=1;align=center;verticalAlign=middle;whiteSpace=wrap;rounded=0;fillColor=none;fontStyle=1;" parent="1" vertex="1">
          <mxGeometry x="498.78999999999996" y="830" width="60" height="30" as="geometry" />
        </mxCell>
        <mxCell id="XJs-50ZHC66t2jsVd8uo-48" value="E" style="text;html=1;align=center;verticalAlign=middle;whiteSpace=wrap;rounded=0;fillColor=none;fontStyle=1;" parent="1" vertex="1">
          <mxGeometry x="498.78999999999996" y="920" width="60" height="30" as="geometry" />
        </mxCell>
        <mxCell id="XJs-50ZHC66t2jsVd8uo-49" value="OBS" style="ellipse;whiteSpace=wrap;html=1;fontFamily=Helvetica;fontSize=13;fillColor=#d5e8d4;strokeColor=#82b366;" parent="1" vertex="1">
          <mxGeometry x="-290" y="880" width="180" height="40" as="geometry" />
        </mxCell>
        <mxCell id="XJs-50ZHC66t2jsVd8uo-55" style="edgeStyle=orthogonalEdgeStyle;rounded=0;orthogonalLoop=1;jettySize=auto;html=1;exitX=1;exitY=0.5;exitDx=0;exitDy=0;entryX=0;entryY=1;entryDx=0;entryDy=0;dashed=1;" parent="1" source="XJs-50ZHC66t2jsVd8uo-50" target="XJs-50ZHC66t2jsVd8uo-33" edge="1">
          <mxGeometry relative="1" as="geometry">
            <Array as="points">
              <mxPoint x="470" y="550" />
              <mxPoint x="470" y="510" />
              <mxPoint x="306" y="510" />
            </Array>
          </mxGeometry>
        </mxCell>
        <mxCell id="XJs-50ZHC66t2jsVd8uo-50" value="Ajouter un commentaire" style="ellipse;whiteSpace=wrap;html=1;fontFamily=Helvetica;fontSize=13;fillColor=#d5e8d4;strokeColor=#82b366;" parent="1" vertex="1">
          <mxGeometry x="279.99999999999994" y="530" width="180" height="40" as="geometry" />
        </mxCell>
        <mxCell id="XJs-50ZHC66t2jsVd8uo-56" style="edgeStyle=orthogonalEdgeStyle;rounded=0;orthogonalLoop=1;jettySize=auto;html=1;exitX=1;exitY=0.5;exitDx=0;exitDy=0;entryX=0.5;entryY=1;entryDx=0;entryDy=0;dashed=1;" parent="1" source="XJs-50ZHC66t2jsVd8uo-51" target="XJs-50ZHC66t2jsVd8uo-33" edge="1">
          <mxGeometry relative="1" as="geometry">
            <Array as="points">
              <mxPoint x="480" y="605" />
              <mxPoint x="480" y="500" />
              <mxPoint x="370" y="500" />
            </Array>
          </mxGeometry>
        </mxCell>
        <mxCell id="XJs-50ZHC66t2jsVd8uo-51" value="Liker" style="ellipse;whiteSpace=wrap;html=1;fontFamily=Helvetica;fontSize=13;fillColor=#d5e8d4;strokeColor=#82b366;" parent="1" vertex="1">
          <mxGeometry x="279.9999999999998" y="585" width="180" height="40" as="geometry" />
        </mxCell>
        <mxCell id="XJs-50ZHC66t2jsVd8uo-57" style="edgeStyle=orthogonalEdgeStyle;rounded=0;orthogonalLoop=1;jettySize=auto;html=1;exitX=1;exitY=0.5;exitDx=0;exitDy=0;entryX=1;entryY=1;entryDx=0;entryDy=0;dashed=1;" parent="1" source="XJs-50ZHC66t2jsVd8uo-52" target="XJs-50ZHC66t2jsVd8uo-33" edge="1">
          <mxGeometry relative="1" as="geometry">
            <Array as="points">
              <mxPoint x="490" y="660" />
              <mxPoint x="490" y="490" />
              <mxPoint x="434" y="490" />
            </Array>
          </mxGeometry>
        </mxCell>
        <mxCell id="XJs-50ZHC66t2jsVd8uo-52" value="Signaler" style="ellipse;whiteSpace=wrap;html=1;fontFamily=Helvetica;fontSize=13;fillColor=#d5e8d4;strokeColor=#82b366;" parent="1" vertex="1">
          <mxGeometry x="279.99999999999994" y="640" width="180" height="40" as="geometry" />
        </mxCell>
        <mxCell id="XJs-50ZHC66t2jsVd8uo-87" value="&lt;div&gt;&lt;font style=&quot;font-size: 15px;&quot;&gt;&lt;br&gt;&lt;/font&gt;&lt;/div&gt;&lt;div&gt;&lt;font style=&quot;font-size: 15px;&quot;&gt;Comment&lt;/font&gt;&lt;/div&gt;" style="swimlane;fontStyle=1;align=center;verticalAlign=top;childLayout=stackLayout;horizontal=1;startSize=80;horizontalStack=0;resizeParent=1;resizeParentMax=0;resizeLast=0;collapsible=1;marginBottom=0;whiteSpace=wrap;html=1;fillColor=#FFFFFF;strokeColor=#36393d;rounded=1;gradientColor=#E6FFCC;swimlaneFillColor=none;glass=0;gradientDirection=radial;" parent="1" vertex="1">
          <mxGeometry x="2088" y="383" width="240" height="244" as="geometry" />
        </mxCell>
        <mxCell id="XJs-50ZHC66t2jsVd8uo-88" value="&lt;div&gt;+ id : INT&lt;/div&gt;&lt;div&gt;&lt;br&gt;&lt;/div&gt;" style="text;strokeColor=none;fillColor=none;align=left;verticalAlign=top;spacingLeft=4;spacingRight=4;overflow=hidden;rotatable=0;points=[[0,0.5],[1,0.5]];portConstraint=eastwest;whiteSpace=wrap;html=1;" parent="XJs-50ZHC66t2jsVd8uo-87" vertex="1">
          <mxGeometry y="80" width="240" height="26" as="geometry" />
        </mxCell>
        <mxCell id="XJs-50ZHC66t2jsVd8uo-98" value="&lt;div&gt;+ comment : STRING&lt;br&gt;&lt;/div&gt;&lt;div&gt;&lt;br&gt;&lt;/div&gt;" style="text;strokeColor=none;fillColor=none;align=left;verticalAlign=top;spacingLeft=4;spacingRight=4;overflow=hidden;rotatable=0;points=[[0,0.5],[1,0.5]];portConstraint=eastwest;whiteSpace=wrap;html=1;" parent="XJs-50ZHC66t2jsVd8uo-87" vertex="1">
          <mxGeometry y="106" width="240" height="26" as="geometry" />
        </mxCell>
        <mxCell id="XJs-50ZHC66t2jsVd8uo-96" value="&lt;div&gt;+ idUser : INT&lt;/div&gt;&lt;div&gt;&lt;br&gt;&lt;/div&gt;" style="text;strokeColor=none;fillColor=none;align=left;verticalAlign=top;spacingLeft=4;spacingRight=4;overflow=hidden;rotatable=0;points=[[0,0.5],[1,0.5]];portConstraint=eastwest;whiteSpace=wrap;html=1;" parent="XJs-50ZHC66t2jsVd8uo-87" vertex="1">
          <mxGeometry y="132" width="240" height="26" as="geometry" />
        </mxCell>
        <mxCell id="XJs-50ZHC66t2jsVd8uo-97" value="&lt;div&gt;+ idObservation : INT&lt;/div&gt;&lt;div&gt;&lt;br&gt;&lt;/div&gt;" style="text;strokeColor=none;fillColor=none;align=left;verticalAlign=top;spacingLeft=4;spacingRight=4;overflow=hidden;rotatable=0;points=[[0,0.5],[1,0.5]];portConstraint=eastwest;whiteSpace=wrap;html=1;" parent="XJs-50ZHC66t2jsVd8uo-87" vertex="1">
          <mxGeometry y="158" width="240" height="26" as="geometry" />
        </mxCell>
        <mxCell id="XJs-50ZHC66t2jsVd8uo-93" value="" style="line;strokeWidth=1;fillColor=none;align=left;verticalAlign=middle;spacingTop=-1;spacingLeft=3;spacingRight=3;rotatable=0;labelPosition=right;points=[];portConstraint=eastwest;strokeColor=inherit;" parent="XJs-50ZHC66t2jsVd8uo-87" vertex="1">
          <mxGeometry y="184" width="240" height="8" as="geometry" />
        </mxCell>
        <mxCell id="XJs-50ZHC66t2jsVd8uo-138" value="+ get() : type" style="text;strokeColor=none;fillColor=none;align=left;verticalAlign=top;spacingLeft=4;spacingRight=4;overflow=hidden;rotatable=0;points=[[0,0.5],[1,0.5]];portConstraint=eastwest;whiteSpace=wrap;html=1;" parent="XJs-50ZHC66t2jsVd8uo-87" vertex="1">
          <mxGeometry y="192" width="240" height="26" as="geometry" />
        </mxCell>
        <mxCell id="XJs-50ZHC66t2jsVd8uo-137" value="+ set() : type" style="text;strokeColor=none;fillColor=none;align=left;verticalAlign=top;spacingLeft=4;spacingRight=4;overflow=hidden;rotatable=0;points=[[0,0.5],[1,0.5]];portConstraint=eastwest;whiteSpace=wrap;html=1;" parent="XJs-50ZHC66t2jsVd8uo-87" vertex="1">
          <mxGeometry y="218" width="240" height="26" as="geometry" />
        </mxCell>
        <mxCell id="XJs-50ZHC66t2jsVd8uo-99" value="" style="endArrow=none;html=1;rounded=0;strokeWidth=1;endFill=0;endSize=24;" parent="1" source="1fb4G6a68lEe6w4ixnyM-14" target="XJs-50ZHC66t2jsVd8uo-87" edge="1">
          <mxGeometry width="50" height="50" relative="1" as="geometry">
            <mxPoint x="2320" y="450" as="sourcePoint" />
            <mxPoint x="2340" y="760" as="targetPoint" />
          </mxGeometry>
        </mxCell>
        <mxCell id="XJs-50ZHC66t2jsVd8uo-104" value="" style="endArrow=none;html=1;rounded=0;strokeWidth=1;endFill=0;endSize=24;" parent="1" source="1fb4G6a68lEe6w4ixnyM-85" target="XJs-50ZHC66t2jsVd8uo-87" edge="1">
          <mxGeometry width="50" height="50" relative="1" as="geometry">
            <mxPoint x="1810" y="610" as="sourcePoint" />
            <mxPoint x="1860" y="740" as="targetPoint" />
          </mxGeometry>
        </mxCell>
        <mxCell id="XJs-50ZHC66t2jsVd8uo-105" value="*" style="text;html=1;align=center;verticalAlign=middle;whiteSpace=wrap;rounded=0;fontSize=24;" parent="1" vertex="1">
          <mxGeometry x="1521" y="817" width="60" height="30" as="geometry" />
        </mxCell>
        <mxCell id="XJs-50ZHC66t2jsVd8uo-106" value="1" style="text;html=1;align=center;verticalAlign=middle;whiteSpace=wrap;rounded=0;fontSize=24;" parent="1" vertex="1">
          <mxGeometry x="1310" y="805" width="60" height="30" as="geometry" />
        </mxCell>
        <mxCell id="XJs-50ZHC66t2jsVd8uo-107" value="*" style="text;html=1;align=center;verticalAlign=middle;whiteSpace=wrap;rounded=0;fontSize=24;" parent="1" vertex="1">
          <mxGeometry x="1810" y="830" width="60" height="30" as="geometry" />
        </mxCell>
        <mxCell id="XJs-50ZHC66t2jsVd8uo-108" value="1" style="text;html=1;align=center;verticalAlign=middle;whiteSpace=wrap;rounded=0;fontSize=24;" parent="1" vertex="1">
          <mxGeometry x="2028" y="860" width="60" height="30" as="geometry" />
        </mxCell>
        <mxCell id="XJs-50ZHC66t2jsVd8uo-111" value="" style="endArrow=none;endFill=0;endSize=24;html=1;rounded=0;" parent="1" source="1fb4G6a68lEe6w4ixnyM-85" target="1fb4G6a68lEe6w4ixnyM-1" edge="1">
          <mxGeometry width="160" relative="1" as="geometry">
            <mxPoint x="1809.2" y="359.75" as="sourcePoint" />
            <mxPoint x="1410" y="670" as="targetPoint" />
          </mxGeometry>
        </mxCell>
        <mxCell id="XJs-50ZHC66t2jsVd8uo-112" value="1" style="text;html=1;align=center;verticalAlign=middle;whiteSpace=wrap;rounded=0;fontSize=24;" parent="1" vertex="1">
          <mxGeometry x="1790" y="710" width="60" height="30" as="geometry" />
        </mxCell>
        <mxCell id="XJs-50ZHC66t2jsVd8uo-113" value="*" style="text;html=1;align=center;verticalAlign=middle;whiteSpace=wrap;rounded=0;fontSize=24;" parent="1" vertex="1">
          <mxGeometry x="2040" y="560" width="60" height="30" as="geometry" />
        </mxCell>
        <mxCell id="XJs-50ZHC66t2jsVd8uo-114" value="*" style="text;html=1;align=center;verticalAlign=middle;whiteSpace=wrap;rounded=0;fontSize=24;" parent="1" vertex="1">
          <mxGeometry x="2140" y="640" width="60" height="30" as="geometry" />
        </mxCell>
        <mxCell id="XJs-50ZHC66t2jsVd8uo-115" value="1" style="text;html=1;align=center;verticalAlign=middle;whiteSpace=wrap;rounded=0;fontSize=24;" parent="1" vertex="1">
          <mxGeometry x="2150" y="750" width="60" height="30" as="geometry" />
        </mxCell>
        <mxCell id="XJs-50ZHC66t2jsVd8uo-141" value="&lt;div style=&quot;font-size: 15px;&quot;&gt;&lt;font style=&quot;font-size: 15px;&quot;&gt;&lt;br&gt;&lt;/font&gt;&lt;/div&gt;&lt;div style=&quot;font-size: 15px;&quot;&gt;&lt;font style=&quot;font-size: 15px;&quot;&gt;&lt;font style=&quot;font-size: 15px;&quot;&gt;ObservationPhoto&lt;/font&gt;&lt;br&gt;&lt;/font&gt;&lt;/div&gt;" style="swimlane;fontStyle=1;align=center;verticalAlign=top;childLayout=stackLayout;horizontal=1;startSize=80;horizontalStack=0;resizeParent=1;resizeParentMax=0;resizeLast=0;collapsible=1;marginBottom=0;whiteSpace=wrap;html=1;fillColor=#d5e8d4;strokeColor=#82b366;" parent="1" vertex="1">
          <mxGeometry x="1370" y="260" width="240" height="166" as="geometry" />
        </mxCell>
        <mxCell id="XJs-50ZHC66t2jsVd8uo-142" value="+ id : INT" style="text;strokeColor=none;fillColor=none;align=left;verticalAlign=top;spacingLeft=4;spacingRight=4;overflow=hidden;rotatable=0;points=[[0,0.5],[1,0.5]];portConstraint=eastwest;whiteSpace=wrap;html=1;" parent="XJs-50ZHC66t2jsVd8uo-141" vertex="1">
          <mxGeometry y="80" width="240" height="26" as="geometry" />
        </mxCell>
        <mxCell id="XJs-50ZHC66t2jsVd8uo-147" value="" style="line;strokeWidth=1;fillColor=none;align=left;verticalAlign=middle;spacingTop=-1;spacingLeft=3;spacingRight=3;rotatable=0;labelPosition=right;points=[];portConstraint=eastwest;strokeColor=inherit;" parent="XJs-50ZHC66t2jsVd8uo-141" vertex="1">
          <mxGeometry y="106" width="240" height="8" as="geometry" />
        </mxCell>
        <mxCell id="XJs-50ZHC66t2jsVd8uo-148" value="+ get() : type" style="text;strokeColor=none;fillColor=none;align=left;verticalAlign=top;spacingLeft=4;spacingRight=4;overflow=hidden;rotatable=0;points=[[0,0.5],[1,0.5]];portConstraint=eastwest;whiteSpace=wrap;html=1;" parent="XJs-50ZHC66t2jsVd8uo-141" vertex="1">
          <mxGeometry y="114" width="240" height="26" as="geometry" />
        </mxCell>
        <mxCell id="XJs-50ZHC66t2jsVd8uo-149" value="+ set() : type" style="text;strokeColor=none;fillColor=none;align=left;verticalAlign=top;spacingLeft=4;spacingRight=4;overflow=hidden;rotatable=0;points=[[0,0.5],[1,0.5]];portConstraint=eastwest;whiteSpace=wrap;html=1;" parent="XJs-50ZHC66t2jsVd8uo-141" vertex="1">
          <mxGeometry y="140" width="240" height="26" as="geometry" />
        </mxCell>
        <mxCell id="XJs-50ZHC66t2jsVd8uo-151" value="*" style="text;html=1;align=center;verticalAlign=middle;whiteSpace=wrap;rounded=0;fontSize=24;" parent="1" vertex="1">
          <mxGeometry x="1530" y="430" width="60" height="30" as="geometry" />
        </mxCell>
        <mxCell id="XJs-50ZHC66t2jsVd8uo-152" value="1" style="text;html=1;align=center;verticalAlign=middle;whiteSpace=wrap;rounded=0;fontSize=24;" parent="1" vertex="1">
          <mxGeometry x="1560" y="510" width="60" height="30" as="geometry" />
        </mxCell>
        <mxCell id="XJs-50ZHC66t2jsVd8uo-159" value="&lt;div&gt;&lt;font style=&quot;font-size: 15px;&quot;&gt;&lt;br&gt;&lt;/font&gt;&lt;/div&gt;&lt;div&gt;&lt;font style=&quot;font-size: 15px;&quot;&gt;Likable&lt;/font&gt;&lt;/div&gt;" style="swimlane;fontStyle=1;align=center;verticalAlign=top;childLayout=stackLayout;horizontal=1;startSize=80;horizontalStack=0;resizeParent=1;resizeParentMax=0;resizeLast=0;collapsible=1;marginBottom=0;whiteSpace=wrap;html=1;fillColor=#FFFFFF;strokeColor=#36393d;rounded=1;gradientColor=#E6FFCC;swimlaneFillColor=none;glass=0;gradientDirection=radial;" parent="1" vertex="1">
          <mxGeometry x="1560" y="1220" width="250" height="270" as="geometry" />
        </mxCell>
        <mxCell id="XJs-50ZHC66t2jsVd8uo-160" value="&lt;div&gt;+ id : INT&lt;/div&gt;&lt;div&gt;&lt;br&gt;&lt;/div&gt;" style="text;strokeColor=none;fillColor=none;align=left;verticalAlign=top;spacingLeft=4;spacingRight=4;overflow=hidden;rotatable=0;points=[[0,0.5],[1,0.5]];portConstraint=eastwest;whiteSpace=wrap;html=1;" parent="XJs-50ZHC66t2jsVd8uo-159" vertex="1">
          <mxGeometry y="80" width="250" height="26" as="geometry" />
        </mxCell>
        <mxCell id="XJs-50ZHC66t2jsVd8uo-161" value="&lt;div&gt;+ isLiked : BOOLEAN&lt;br&gt;&lt;/div&gt;&lt;div&gt;&lt;br&gt;&lt;/div&gt;" style="text;strokeColor=none;fillColor=none;align=left;verticalAlign=top;spacingLeft=4;spacingRight=4;overflow=hidden;rotatable=0;points=[[0,0.5],[1,0.5]];portConstraint=eastwest;whiteSpace=wrap;html=1;" parent="XJs-50ZHC66t2jsVd8uo-159" vertex="1">
          <mxGeometry y="106" width="250" height="26" as="geometry" />
        </mxCell>
        <mxCell id="XJs-50ZHC66t2jsVd8uo-162" value="&lt;div&gt;+ idUser : INT&lt;/div&gt;&lt;div&gt;&lt;br&gt;&lt;/div&gt;" style="text;strokeColor=none;fillColor=none;align=left;verticalAlign=top;spacingLeft=4;spacingRight=4;overflow=hidden;rotatable=0;points=[[0,0.5],[1,0.5]];portConstraint=eastwest;whiteSpace=wrap;html=1;" parent="XJs-50ZHC66t2jsVd8uo-159" vertex="1">
          <mxGeometry y="132" width="250" height="26" as="geometry" />
        </mxCell>
        <mxCell id="XJs-50ZHC66t2jsVd8uo-163" value="&lt;div&gt;+ idObservation : INT&lt;/div&gt;&lt;div&gt;&lt;br&gt;&lt;/div&gt;" style="text;strokeColor=none;fillColor=none;align=left;verticalAlign=top;spacingLeft=4;spacingRight=4;overflow=hidden;rotatable=0;points=[[0,0.5],[1,0.5]];portConstraint=eastwest;whiteSpace=wrap;html=1;" parent="XJs-50ZHC66t2jsVd8uo-159" vertex="1">
          <mxGeometry y="158" width="250" height="26" as="geometry" />
        </mxCell>
        <mxCell id="XJs-50ZHC66t2jsVd8uo-185" value="&lt;div&gt;+ idInsect : INT&lt;/div&gt;&lt;div&gt;&lt;br&gt;&lt;/div&gt;" style="text;strokeColor=none;fillColor=none;align=left;verticalAlign=top;spacingLeft=4;spacingRight=4;overflow=hidden;rotatable=0;points=[[0,0.5],[1,0.5]];portConstraint=eastwest;whiteSpace=wrap;html=1;" parent="XJs-50ZHC66t2jsVd8uo-159" vertex="1">
          <mxGeometry y="184" width="250" height="26" as="geometry" />
        </mxCell>
        <mxCell id="XJs-50ZHC66t2jsVd8uo-164" value="" style="line;strokeWidth=1;fillColor=none;align=left;verticalAlign=middle;spacingTop=-1;spacingLeft=3;spacingRight=3;rotatable=0;labelPosition=right;points=[];portConstraint=eastwest;strokeColor=inherit;" parent="XJs-50ZHC66t2jsVd8uo-159" vertex="1">
          <mxGeometry y="210" width="250" height="8" as="geometry" />
        </mxCell>
        <mxCell id="XJs-50ZHC66t2jsVd8uo-165" value="+ get() : type" style="text;strokeColor=none;fillColor=none;align=left;verticalAlign=top;spacingLeft=4;spacingRight=4;overflow=hidden;rotatable=0;points=[[0,0.5],[1,0.5]];portConstraint=eastwest;whiteSpace=wrap;html=1;" parent="XJs-50ZHC66t2jsVd8uo-159" vertex="1">
          <mxGeometry y="218" width="250" height="26" as="geometry" />
        </mxCell>
        <mxCell id="XJs-50ZHC66t2jsVd8uo-166" value="+ set() : type" style="text;strokeColor=none;fillColor=none;align=left;verticalAlign=top;spacingLeft=4;spacingRight=4;overflow=hidden;rotatable=0;points=[[0,0.5],[1,0.5]];portConstraint=eastwest;whiteSpace=wrap;html=1;" parent="XJs-50ZHC66t2jsVd8uo-159" vertex="1">
          <mxGeometry y="244" width="250" height="26" as="geometry" />
        </mxCell>
        <mxCell id="XJs-50ZHC66t2jsVd8uo-167" value="" style="endArrow=none;html=1;rounded=0;strokeWidth=1;endFill=0;endSize=24;entryX=0.5;entryY=0;entryDx=0;entryDy=0;" parent="1" source="1fb4G6a68lEe6w4ixnyM-14" target="1mGO9GBIoWILEAqT3WhJ-13" edge="1">
          <mxGeometry width="50" height="50" relative="1" as="geometry">
            <mxPoint x="2333" y="740.5" as="sourcePoint" />
            <mxPoint x="2223" y="943.5" as="targetPoint" />
          </mxGeometry>
        </mxCell>
        <mxCell id="XJs-50ZHC66t2jsVd8uo-168" value="" style="endArrow=block;html=1;rounded=0;strokeWidth=1;endFill=1;endSize=24;" parent="1" source="1mGO9GBIoWILEAqT3WhJ-2" target="XJs-50ZHC66t2jsVd8uo-159" edge="1">
          <mxGeometry width="50" height="50" relative="1" as="geometry">
            <mxPoint x="2150" y="980" as="sourcePoint" />
            <mxPoint x="1855" y="998" as="targetPoint" />
          </mxGeometry>
        </mxCell>
        <mxCell id="XJs-50ZHC66t2jsVd8uo-191" value="sujet" style="text;html=1;align=center;verticalAlign=middle;whiteSpace=wrap;rounded=0;" parent="1" vertex="1">
          <mxGeometry x="1414" y="808" width="60" height="30" as="geometry" />
        </mxCell>
        <mxCell id="XJs-50ZHC66t2jsVd8uo-192" value="créer" style="text;html=1;align=center;verticalAlign=middle;whiteSpace=wrap;rounded=0;" parent="1" vertex="1">
          <mxGeometry x="1920" y="850" width="60" height="30" as="geometry" />
        </mxCell>
        <mxCell id="XJs-50ZHC66t2jsVd8uo-193" value="possèder" style="text;html=1;align=center;verticalAlign=middle;whiteSpace=wrap;rounded=0;" parent="1" vertex="1">
          <mxGeometry x="1480" y="480" width="60" height="30" as="geometry" />
        </mxCell>
        <mxCell id="XJs-50ZHC66t2jsVd8uo-194" value="rédiger" style="text;html=1;align=center;verticalAlign=middle;whiteSpace=wrap;rounded=0;" parent="1" vertex="1">
          <mxGeometry x="2210" y="680" width="60" height="30" as="geometry" />
        </mxCell>
        <mxCell id="XJs-50ZHC66t2jsVd8uo-197" value="recevoir" style="text;html=1;align=center;verticalAlign=middle;whiteSpace=wrap;rounded=0;" parent="1" vertex="1">
          <mxGeometry x="1910" y="627" width="60" height="30" as="geometry" />
        </mxCell>
        <mxCell id="XJs-50ZHC66t2jsVd8uo-199" value="proche" style="text;html=1;align=center;verticalAlign=middle;whiteSpace=wrap;rounded=0;" parent="1" vertex="1">
          <mxGeometry x="1412" y="832" width="60" height="30" as="geometry" />
        </mxCell>
        <mxCell id="XJs-50ZHC66t2jsVd8uo-200" value="*" style="text;html=1;align=center;verticalAlign=middle;whiteSpace=wrap;rounded=0;fontSize=24;" parent="1" vertex="1">
          <mxGeometry x="1311" y="838" width="60" height="30" as="geometry" />
        </mxCell>
        <mxCell id="XJs-50ZHC66t2jsVd8uo-201" value="*" style="text;html=1;align=center;verticalAlign=middle;whiteSpace=wrap;rounded=0;fontSize=24;" parent="1" vertex="1">
          <mxGeometry x="1520" y="841" width="60" height="30" as="geometry" />
        </mxCell>
        <mxCell id="1mGO9GBIoWILEAqT3WhJ-2" value="&lt;div style=&quot;font-size: 15px;&quot;&gt;&lt;font style=&quot;font-size: 15px;&quot;&gt;&lt;br&gt;&lt;/font&gt;&lt;/div&gt;&lt;div style=&quot;font-size: 15px;&quot;&gt;&lt;font style=&quot;font-size: 15px;&quot;&gt;LikeInsecte&lt;/font&gt;&lt;/div&gt;&lt;div style=&quot;font-size: 15px;&quot;&gt;&lt;font style=&quot;font-size: 15px;&quot;&gt;&lt;br&gt;&lt;/font&gt;&lt;/div&gt;" style="swimlane;fontStyle=1;align=center;verticalAlign=top;childLayout=stackLayout;horizontal=1;startSize=80;horizontalStack=0;resizeParent=1;resizeParentMax=0;resizeLast=0;collapsible=1;marginBottom=0;whiteSpace=wrap;html=1;fillColor=#FFFFFF;strokeColor=#36393d;rounded=1;gradientColor=#E6FFCC;swimlaneFillColor=none;glass=0;gradientDirection=radial;" parent="1" vertex="1">
          <mxGeometry x="1270" y="1490" width="240" height="140" as="geometry" />
        </mxCell>
        <mxCell id="1mGO9GBIoWILEAqT3WhJ-3" value="&lt;div&gt;+ id : INT&lt;/div&gt;&lt;div&gt;&lt;br&gt;&lt;/div&gt;" style="text;strokeColor=none;fillColor=none;align=left;verticalAlign=top;spacingLeft=4;spacingRight=4;overflow=hidden;rotatable=0;points=[[0,0.5],[1,0.5]];portConstraint=eastwest;whiteSpace=wrap;html=1;" parent="1mGO9GBIoWILEAqT3WhJ-2" vertex="1">
          <mxGeometry y="80" width="240" height="26" as="geometry" />
        </mxCell>
        <mxCell id="1mGO9GBIoWILEAqT3WhJ-8" value="" style="line;strokeWidth=1;fillColor=none;align=left;verticalAlign=middle;spacingTop=-1;spacingLeft=3;spacingRight=3;rotatable=0;labelPosition=right;points=[];portConstraint=eastwest;strokeColor=inherit;" parent="1mGO9GBIoWILEAqT3WhJ-2" vertex="1">
          <mxGeometry y="106" width="240" height="8" as="geometry" />
        </mxCell>
        <mxCell id="1mGO9GBIoWILEAqT3WhJ-9" value="+ get() : type" style="text;strokeColor=none;fillColor=none;align=left;verticalAlign=top;spacingLeft=4;spacingRight=4;overflow=hidden;rotatable=0;points=[[0,0.5],[1,0.5]];portConstraint=eastwest;whiteSpace=wrap;html=1;" parent="1mGO9GBIoWILEAqT3WhJ-2" vertex="1">
          <mxGeometry y="114" width="240" height="26" as="geometry" />
        </mxCell>
        <mxCell id="1mGO9GBIoWILEAqT3WhJ-13" value="&lt;div style=&quot;font-size: 15px;&quot;&gt;&lt;font style=&quot;font-size: 15px;&quot;&gt;&lt;br&gt;&lt;/font&gt;&lt;/div&gt;&lt;div style=&quot;font-size: 15px;&quot;&gt;&lt;font style=&quot;font-size: 15px;&quot;&gt;LikeObservation&lt;/font&gt;&lt;/div&gt;&lt;div style=&quot;font-size: 15px;&quot;&gt;&lt;font style=&quot;font-size: 15px;&quot;&gt;&lt;br&gt;&lt;/font&gt;&lt;/div&gt;" style="swimlane;fontStyle=1;align=center;verticalAlign=top;childLayout=stackLayout;horizontal=1;startSize=80;horizontalStack=0;resizeParent=1;resizeParentMax=0;resizeLast=0;collapsible=1;marginBottom=0;whiteSpace=wrap;html=1;fillColor=#FFFFFF;strokeColor=#36393d;rounded=1;gradientColor=#E6FFCC;swimlaneFillColor=none;glass=0;gradientDirection=radial;" parent="1" vertex="1">
          <mxGeometry x="1848" y="1490" width="240" height="140" as="geometry" />
        </mxCell>
        <mxCell id="1mGO9GBIoWILEAqT3WhJ-14" value="&lt;div&gt;+ id : INT&lt;/div&gt;&lt;div&gt;&lt;br&gt;&lt;/div&gt;" style="text;strokeColor=none;fillColor=none;align=left;verticalAlign=top;spacingLeft=4;spacingRight=4;overflow=hidden;rotatable=0;points=[[0,0.5],[1,0.5]];portConstraint=eastwest;whiteSpace=wrap;html=1;" parent="1mGO9GBIoWILEAqT3WhJ-13" vertex="1">
          <mxGeometry y="80" width="240" height="26" as="geometry" />
        </mxCell>
        <mxCell id="1mGO9GBIoWILEAqT3WhJ-19" value="" style="line;strokeWidth=1;fillColor=none;align=left;verticalAlign=middle;spacingTop=-1;spacingLeft=3;spacingRight=3;rotatable=0;labelPosition=right;points=[];portConstraint=eastwest;strokeColor=inherit;" parent="1mGO9GBIoWILEAqT3WhJ-13" vertex="1">
          <mxGeometry y="106" width="240" height="8" as="geometry" />
        </mxCell>
        <mxCell id="1mGO9GBIoWILEAqT3WhJ-20" value="+ get() : type" style="text;strokeColor=none;fillColor=none;align=left;verticalAlign=top;spacingLeft=4;spacingRight=4;overflow=hidden;rotatable=0;points=[[0,0.5],[1,0.5]];portConstraint=eastwest;whiteSpace=wrap;html=1;" parent="1mGO9GBIoWILEAqT3WhJ-13" vertex="1">
          <mxGeometry y="114" width="240" height="26" as="geometry" />
        </mxCell>
        <mxCell id="1mGO9GBIoWILEAqT3WhJ-22" value="" style="endArrow=block;html=1;rounded=0;strokeWidth=1;endFill=1;endSize=24;" parent="1" source="1mGO9GBIoWILEAqT3WhJ-13" target="XJs-50ZHC66t2jsVd8uo-159" edge="1">
          <mxGeometry width="50" height="50" relative="1" as="geometry">
            <mxPoint x="2289.84" y="820" as="sourcePoint" />
            <mxPoint x="2365.84" y="1160" as="targetPoint" />
          </mxGeometry>
        </mxCell>
        <mxCell id="1mGO9GBIoWILEAqT3WhJ-25" value="" style="endArrow=none;html=1;rounded=0;strokeWidth=1;endFill=0;endSize=24;" parent="1" source="1fb4G6a68lEe6w4ixnyM-14" target="1fb4G6a68lEe6w4ixnyM-85" edge="1">
          <mxGeometry width="50" height="50" relative="1" as="geometry">
            <mxPoint x="2240.42" y="490" as="sourcePoint" />
            <mxPoint x="1798.42" y="1020" as="targetPoint" />
          </mxGeometry>
        </mxCell>
        <mxCell id="1mGO9GBIoWILEAqT3WhJ-30" value="" style="endArrow=none;html=1;rounded=0;strokeWidth=1;endFill=0;endSize=24;" parent="1" source="1fb4G6a68lEe6w4ixnyM-85" target="XJs-50ZHC66t2jsVd8uo-141" edge="1">
          <mxGeometry width="50" height="50" relative="1" as="geometry">
            <mxPoint x="1761" y="480.31" as="sourcePoint" />
            <mxPoint x="2040" y="300.31" as="targetPoint" />
          </mxGeometry>
        </mxCell>
        <mxCell id="1mGO9GBIoWILEAqT3WhJ-31" value="*" style="text;html=1;align=center;verticalAlign=middle;whiteSpace=wrap;rounded=0;fontSize=24;" parent="1" vertex="1">
          <mxGeometry x="1955" y="1469" width="60" height="30" as="geometry" />
        </mxCell>
        <mxCell id="1mGO9GBIoWILEAqT3WhJ-33" value="1" style="text;html=1;align=center;verticalAlign=middle;whiteSpace=wrap;rounded=0;fontSize=24;" parent="1" vertex="1">
          <mxGeometry x="2123" y="1050" width="60" height="30" as="geometry" />
        </mxCell>
        <mxCell id="1mGO9GBIoWILEAqT3WhJ-38" value="ajoute" style="text;html=1;align=center;verticalAlign=middle;whiteSpace=wrap;rounded=0;" parent="1" vertex="1">
          <mxGeometry x="2070" y="1250" width="60" height="30" as="geometry" />
        </mxCell>
        <mxCell id="aVvn0XleO2EGruv-ddqf-1" value="" style="endArrow=none;html=1;rounded=0;strokeWidth=1;endFill=0;endSize=24;" edge="1" parent="1" source="1fb4G6a68lEe6w4ixnyM-14" target="1mGO9GBIoWILEAqT3WhJ-2">
          <mxGeometry width="50" height="50" relative="1" as="geometry">
            <mxPoint x="2114" y="1020" as="sourcePoint" />
            <mxPoint x="1620" y="1620" as="targetPoint" />
            <Array as="points">
              <mxPoint x="2130" y="1740" />
            </Array>
          </mxGeometry>
        </mxCell>
        <mxCell id="aVvn0XleO2EGruv-ddqf-2" value="1" style="text;html=1;align=center;verticalAlign=middle;whiteSpace=wrap;rounded=0;fontSize=24;" vertex="1" parent="1">
          <mxGeometry x="2171" y="1050" width="60" height="30" as="geometry" />
        </mxCell>
        <mxCell id="aVvn0XleO2EGruv-ddqf-3" value="*" style="text;html=1;align=center;verticalAlign=middle;whiteSpace=wrap;rounded=0;fontSize=24;" vertex="1" parent="1">
          <mxGeometry x="1487" y="1588" width="60" height="30" as="geometry" />
        </mxCell>
        <mxCell id="aVvn0XleO2EGruv-ddqf-4" value="ajoute" style="text;html=1;align=center;verticalAlign=middle;whiteSpace=wrap;rounded=0;" vertex="1" parent="1">
          <mxGeometry x="2070" y="1730" width="60" height="30" as="geometry" />
        </mxCell>
        <mxCell id="aVvn0XleO2EGruv-ddqf-9" value="" style="endArrow=none;html=1;rounded=0;strokeWidth=1;endFill=0;endSize=24;" edge="1" parent="1" source="1fb4G6a68lEe6w4ixnyM-1" target="1mGO9GBIoWILEAqT3WhJ-2">
          <mxGeometry width="50" height="50" relative="1" as="geometry">
            <mxPoint x="1550" y="1294.2" as="sourcePoint" />
            <mxPoint x="1271" y="1256.2" as="targetPoint" />
          </mxGeometry>
        </mxCell>
        <mxCell id="aVvn0XleO2EGruv-ddqf-10" value="" style="endArrow=none;html=1;rounded=0;strokeWidth=1;endFill=0;endSize=24;" edge="1" parent="1" source="1fb4G6a68lEe6w4ixnyM-85" target="1mGO9GBIoWILEAqT3WhJ-13">
          <mxGeometry width="50" height="50" relative="1" as="geometry">
            <mxPoint x="1860.15" y="1092" as="sourcePoint" />
            <mxPoint x="1951.15" y="1460" as="targetPoint" />
          </mxGeometry>
        </mxCell>
      </root>
    </mxGraphModel>
  </diagram>
</mxfile>
